# xmcd
# Track frame offsets:
# 150
# 22269
# 45756
# 68916
# 89080
# 115393
# 136600
# 159483
# 177598
# 204004
#
# Disc length: 3080 seconds
# Revision: 0
# Processed by: cddbd v1.5.2PL0 Copyright (c) Steve Scherf et al.
# Submitted via: VisiTrax 2.10.2.252 - For more info visit www.synapsa.com
#
DISCID=820c060a
DTITLE=John Mayall - Chicago line
DYEAR=1900
DGENRE=Blues
TTITLE0=Chicago line
TTITLE1=Gimme one mre day
TTITLE2=One life to live
TTITLE3=The last time
TTITLE4=Dream about the blues
TTITLE5=Fascinatin´lover
TTITLE6=Cold blooded mama
TTITLE7=The dirty dozens
TTITLE8=Tears came rollin down
TTITLE9=Life in the jungle
EXTD=
EXTT0=
EXTT1=
EXTT2=
EXTT3=
EXTT4=
EXTT5=
EXTT6=
EXTT7=
EXTT8=
EXTT9=
PLAYORDER=
